<svg width="1280" height="720" xmlns="http://www.w3.org/2000/svg" xmlns:xlink="http://www.w3.org/1999/xlink" overflow="hidden"><defs><clipPath id="clip0"><rect x="0" y="0" width="1280" height="720"/></clipPath><clipPath id="clip1"><rect x="308" y="28" width="664" height="664"/></clipPath><clipPath id="clip2"><rect x="308" y="28" width="664" height="664"/></clipPath><clipPath id="clip3"><rect x="308" y="28" width="664" height="664"/></clipPath></defs><g clip-path="url(#clip0)"><rect x="0" y="0" width="1280" height="720" fill="#FFFFFF"/><g clip-path="url(#clip1)"><g clip-path="url(#clip2)"><g clip-path="url(#clip3)"><path d="M640 312.571C698.545 312.571 753.262 307.261 804.147 296.638 855.033 286.016 895.177 270.33 924.571 249.58L924.571 312.571C924.571 329.616 911.851 345.426 886.406 360 860.962 374.574 826.379 386.123 782.656 394.645 738.933 403.167 691.382 407.429 640 407.429 588.619 407.429 541.067 403.167 497.344 394.645 453.621 386.123 419.037 374.574 393.594 360 368.15 345.426 355.429 329.616 355.429 312.571L355.429 249.58C384.824 270.33 424.966 286.016 475.853 296.638 526.739 307.261 581.455 312.571 640 312.571ZM640 597.143C698.545 597.143 753.262 591.833 804.147 581.21 855.033 570.587 895.177 554.902 924.571 534.152L924.571 597.143C924.571 614.188 911.851 629.998 886.406 644.571 860.962 659.145 826.379 670.694 782.656 679.216 738.933 687.739 691.382 692 640 692 588.619 692 541.067 687.739 497.344 679.216 453.621 670.694 419.037 659.145 393.594 644.571 368.15 629.998 355.429 614.188 355.429 597.143L355.429 534.152C384.824 554.902 424.966 570.587 475.853 581.21 526.739 591.833 581.455 597.143 640 597.143ZM640 454.857C698.545 454.857 753.262 449.547 804.147 438.924 855.033 428.301 895.177 412.616 924.571 391.866L924.571 454.857C924.571 471.902 911.851 487.713 886.406 502.286 860.962 516.859 826.379 528.408 782.656 536.931 738.933 545.453 691.382 549.714 640 549.714 588.619 549.714 541.067 545.453 497.344 536.931 453.621 528.408 419.037 516.859 393.594 502.286 368.15 487.713 355.429 471.902 355.429 454.857L355.429 391.866C384.824 412.616 424.966 428.301 475.853 438.924 526.739 449.547 581.455 454.857 640 454.857ZM640 28C691.382 28 738.933 32.2612 782.656 40.7835 826.379 49.3058 860.962 60.8542 886.406 75.4286 911.851 90.0029 924.571 105.812 924.571 122.857L924.571 170.286C924.571 187.33 911.851 203.14 886.406 217.714 860.962 232.289 826.379 243.837 782.656 252.359 738.933 260.882 691.382 265.143 640 265.143 588.619 265.143 541.067 260.882 497.344 252.359 453.621 243.837 419.037 232.289 393.594 217.714 368.15 203.14 355.429 187.33 355.429 170.286L355.429 122.857C355.429 105.812 368.15 90.0029 393.594 75.4286 419.037 60.8542 453.621 49.3058 497.344 40.7835 541.067 32.2612 588.619 28 640 28Z" fill="#7510F7"/></g></g></g></g></svg>