<svg width="1280" height="720" xmlns="http://www.w3.org/2000/svg" xmlns:xlink="http://www.w3.org/1999/xlink" overflow="hidden"><defs><clipPath id="clip0"><rect x="0" y="0" width="1280" height="720"/></clipPath><clipPath id="clip1"><rect x="303" y="23" width="674" height="674"/></clipPath><clipPath id="clip2"><rect x="303" y="23" width="674" height="674"/></clipPath><clipPath id="clip3"><rect x="303" y="23" width="674" height="674"/></clipPath></defs><g clip-path="url(#clip0)"><rect x="0" y="0" width="1280" height="720" fill="#FFFFFF"/><g clip-path="url(#clip1)"><g clip-path="url(#clip2)"><g clip-path="url(#clip3)"><path d="M387.25 79.1667C387.25 86.9217 380.963 93.2083 373.208 93.2083 365.453 93.2083 359.167 86.9217 359.167 79.1667 359.167 71.4117 365.453 65.125 373.208 65.125 380.963 65.125 387.25 71.4117 387.25 79.1667Z" fill="#7510F7"/><path d="M443.417 79.1667C443.417 86.9217 437.13 93.2083 429.375 93.2083 421.62 93.2083 415.333 86.9217 415.333 79.1667 415.333 71.4117 421.62 65.125 429.375 65.125 437.13 65.125 443.417 71.4117 443.417 79.1667Z" fill="#7510F7"/><path d="M499.583 79.1667C499.583 86.9217 493.297 93.2083 485.542 93.2083 477.787 93.2083 471.5 86.9217 471.5 79.1667 471.5 71.4117 477.787 65.125 485.542 65.125 493.297 65.125 499.583 71.4117 499.583 79.1667Z" fill="#7510F7"/><path d="M962.958 514.458 940.772 514.458C940.479 513.923 940.243 513.359 940.07 512.773L955.797 497.047C958.426 494.397 959.89 490.809 959.869 487.077 959.817 483.359 958.362 479.798 955.797 477.108L920.833 442.284 920.833 79.1667C920.833 48.1467 895.686 23 864.667 23L359.167 23C328.147 23 303 48.1467 303 79.1667L303 570.625C303 578.38 309.287 584.667 317.042 584.667L696.167 584.667C696.167 592.422 702.453 598.708 710.208 598.708L732.394 598.708C732.688 599.243 732.924 599.808 733.096 600.393L717.37 616.12C714.741 618.77 713.276 622.357 713.297 626.09 713.349 629.808 714.804 633.369 717.37 636.059L757.108 675.797C762.568 681.303 771.459 681.339 776.965 675.879 776.992 675.852 777.02 675.824 777.047 675.797L792.773 660.07 794.458 660.772 794.458 682.958C794.458 690.714 800.745 697 808.5 697L864.667 697C872.422 697 878.708 690.714 878.708 682.958L878.708 660.772 880.393 660.07 896.12 675.797C898.77 678.426 902.357 679.89 906.09 679.869 909.808 679.817 913.369 678.362 916.059 675.797L955.797 636.059C958.362 633.369 959.817 629.808 959.869 626.09 959.89 622.357 958.426 618.77 955.797 616.12L940.07 600.393C940.243 599.808 940.479 599.243 940.772 598.708L962.958 598.708C970.714 598.708 977 592.422 977 584.667L977 528.5C977 520.745 970.714 514.458 962.958 514.458ZM331.083 79.1667C331.083 63.6567 343.657 51.0833 359.167 51.0833L864.667 51.0833C880.177 51.0833 892.75 63.6567 892.75 79.1667L892.75 107.25 331.083 107.25ZM331.083 556.583 331.083 135.333 892.75 135.333 892.75 440.88 880.393 453.096 878.708 452.394 878.708 430.208C878.708 422.453 872.422 416.167 864.667 416.167L808.5 416.167C800.745 416.167 794.458 422.453 794.458 430.208L794.458 452.394 792.773 453.096 777.047 437.37C774.397 434.741 770.809 433.276 767.077 433.297 763.359 433.349 759.798 434.804 757.108 437.37L717.37 477.108C714.804 479.798 713.349 483.359 713.297 487.077 713.276 490.809 714.741 494.397 717.37 497.047L733.096 512.773C732.924 513.359 732.688 513.923 732.394 514.458L710.208 514.458C702.453 514.458 696.167 520.745 696.167 528.5L696.167 556.583ZM948.917 570.625 930.803 570.625C924.394 570.351 918.616 574.454 916.761 580.595 915.137 586.149 912.924 591.516 910.162 596.602 907.568 602.059 908.756 608.563 913.11 612.75L925.888 625.528 906.792 645.888 892.75 633.11C888.334 628.682 881.521 627.709 876.04 630.723 870.955 633.485 865.588 635.698 860.033 637.323 853.893 639.178 849.789 644.956 850.063 651.365L850.063 668.917 822.542 668.917 822.542 650.803C822.815 644.394 818.713 638.616 812.572 636.761 807.017 635.137 801.651 632.924 796.565 630.162 791.084 627.147 784.271 628.12 779.855 632.549L767.077 645.327 747.278 626.792 760.056 614.014C764.485 609.598 765.458 602.785 762.443 597.304 759.681 592.218 757.468 586.852 755.844 581.297 753.989 575.156 748.211 571.053 741.802 571.327L724.25 571.327 724.25 542.542 742.364 542.542C748.772 542.815 754.551 538.713 756.405 532.572 758.03 527.017 760.243 521.651 763.005 516.565 765.599 511.108 764.411 504.604 760.056 500.417L747.278 487.639 767.077 467.84 779.855 480.618C784.271 485.047 791.084 486.02 796.565 483.005 801.651 480.243 807.017 478.03 812.572 476.405 818.713 474.551 822.815 468.772 822.542 462.364L822.542 444.25 850.625 444.25 850.625 462.364C850.351 468.772 854.454 474.551 860.595 476.405 866.149 478.03 871.516 480.243 876.602 483.005 882.059 485.598 888.563 484.411 892.75 480.056L905.528 467.278 925.327 487.077 912.549 499.855C908.12 504.271 907.147 511.084 910.162 516.565 912.924 521.651 915.137 527.017 916.761 532.572 918.616 538.713 924.394 542.815 930.803 542.542L948.917 542.542Z" fill="#7510F7"/><path d="M836.583 500.417C805.564 500.417 780.417 525.564 780.417 556.583 780.417 587.603 805.564 612.75 836.583 612.75 867.603 612.75 892.75 587.603 892.75 556.583 892.75 525.564 867.603 500.417 836.583 500.417ZM836.583 584.667C821.073 584.667 808.5 572.094 808.5 556.583 808.5 541.073 821.073 528.5 836.583 528.5 852.094 528.5 864.667 541.073 864.667 556.583 864.667 572.094 852.094 584.667 836.583 584.667ZM551.678 279.822C546.217 274.316 537.326 274.28 531.82 279.741 531.794 279.767 531.765 279.795 531.739 279.822L475.572 335.989C470.066 341.45 470.03 350.341 475.491 355.846 475.517 355.873 475.545 355.901 475.572 355.928L531.739 412.095C537.2 417.6 546.091 417.637 551.596 412.176 551.623 412.149 551.651 412.121 551.678 412.095 557.184 406.634 557.22 397.743 551.759 392.237 551.733 392.21 551.705 392.182 551.678 392.155L505.34 345.958 551.678 299.761C557.184 294.3 557.22 285.409 551.759 279.904 551.733 279.877 551.705 279.849 551.678 279.822ZM748.261 335.989 692.095 279.822C686.589 274.316 677.661 274.316 672.155 279.822 666.65 285.328 666.65 294.256 672.155 299.761L718.493 345.958 672.155 392.155C666.65 397.616 666.613 406.507 672.074 412.013 672.101 412.04 672.129 412.068 672.155 412.095 677.616 417.6 686.507 417.637 692.013 412.176 692.04 412.149 692.068 412.121 692.095 412.095L748.261 355.928C753.767 350.467 753.803 341.576 748.343 336.07 748.316 336.044 748.288 336.015 748.261 335.989ZM628.767 261.708C621.194 260.036 613.7 264.819 612.026 272.391 611.987 272.574 611.95 272.758 611.917 272.942L583.833 413.358C582.161 420.931 586.944 428.425 594.516 430.099 594.699 430.138 594.883 430.175 595.067 430.208L597.875 430.208C604.654 430.345 610.562 425.618 611.917 418.975L640 278.558C641.672 270.986 636.89 263.492 629.317 261.818 629.135 261.779 628.951 261.742 628.767 261.708Z" fill="#7510F7"/></g></g></g></g></svg>